<svg width="580" height="400" xmlns="http://www.w3.org/2000/svg">
 <!-- Created with Method Draw - http://github.com/duopixel/Method-Draw/ -->

 <g>
  <title>background</title>
  <rect x="-1" y="-1" width="582" height="402" id="canvas_background" fill="none"/>
  <g id="canvasGrid" display="none">
   <rect id="svg_1" width="100%" height="100%" x="0" y="0" stroke-width="0" fill="url(#gridpattern)"/>
  </g>
 </g>
 <g>
  <title>Layer 1</title>
  <ellipse fill="#1f3696" stroke-width="1.5" cx="170" cy="80" id="svg_7" rx="10" ry="10"/>
  <ellipse fill="#1f3696" stroke-width="1.5" cx="170" cy="120" id="svg_8" rx="10" ry="10"/>
  <ellipse fill="#1f3696" stroke-width="1.5" cx="170" cy="160" id="svg_9" rx="10" ry="10"/>
  <ellipse fill="#1f3696" stroke-width="1.5" cx="170" cy="200" id="svg_10" rx="10" ry="10"/>
  <ellipse fill="#1f3696" stroke-width="1.5" cx="130" cy="200" id="svg_11" rx="10" ry="10"/>
  <ellipse fill="#1f3696" stroke-width="1.5" cx="86" cy="200" id="svg_12" rx="10" ry="10"/>
  <ellipse fill="#1f3696" stroke-width="1.5" cx="140" cy="120" id="svg_14" rx="10" ry="10" stroke="null"/>
  <ellipse fill="#1f3696" stroke-width="1.5" cx="110" cy="160" id="svg_15" rx="10" ry="10"/>
  <ellipse fill="#1f3696" stroke-width="1.5" cx="170" cy="240" id="svg_16" rx="10" ry="10"/>
  <ellipse fill="#1f3696" stroke-width="1.5" cx="170" cy="280" id="svg_17" rx="10" ry="10"/>
  <ellipse fill="#1f3696" stroke-width="1.5" cx="130" cy="200" id="svg_18" rx="10" ry="10"/>
  <ellipse fill="#1f3696" stroke-width="1.5" cx="210" cy="200" id="svg_19" rx="10" ry="10"/>
  <ellipse fill="#1f3696" stroke-width="1.5" cx="250" cy="160" id="svg_20" rx="10" ry="10"/>
  <ellipse fill="#1f3696" stroke-width="1.5" cx="250" cy="120" id="svg_21" rx="10" ry="10"/>
  <ellipse fill="#1f3696" stroke-width="1.5" cx="250" cy="200" id="svg_22" rx="10" ry="10"/>
  <ellipse fill="#1f3696" stroke-width="1.5" cx="290" cy="80" id="svg_23" rx="10" ry="10"/>
  <ellipse fill="#1f3696" stroke-width="1.5" cx="250" cy="240" id="svg_24" rx="10" ry="10"/>
  <ellipse fill="#1f3696" stroke-width="1.5" cx="250" cy="280" id="svg_25" rx="10" ry="10"/>
  <ellipse fill="#1f3696" stroke-width="1.5" cx="170" cy="320" id="svg_26" rx="10" ry="10"/>
  <ellipse fill="#1f3696" stroke-width="1.5" cx="290" cy="320" id="svg_27" rx="10" ry="10"/>
  <ellipse fill="#1f3696" stroke-width="1.5" cx="330" cy="160" id="svg_28" rx="10" ry="10"/>
  <ellipse fill="#1f3696" stroke-width="1.5" cx="330" cy="120" id="svg_29" rx="10" ry="10"/>
  <ellipse fill="#1f3696" stroke-width="1.5" cx="330" cy="200" id="svg_30" rx="10" ry="10"/>
  <ellipse fill="#1f3696" stroke-width="1.5" cx="330" cy="240" id="svg_31" rx="10" ry="10"/>
  <ellipse fill="#1f3696" stroke-width="1.5" cx="330" cy="280" id="svg_32" rx="10" ry="10"/>
  <ellipse fill="#1f3696" stroke-width="1.5" cx="450" cy="80" id="svg_33" rx="10" ry="10"/>
  <ellipse fill="#1f3696" stroke-width="1.5" cx="450" cy="120" id="svg_34" rx="10" ry="10"/>
  <ellipse fill="#1f3696" stroke-width="1.5" cx="450" cy="160" id="svg_35" rx="10" ry="10"/>
  <ellipse fill="#1f3696" stroke-width="1.5" cx="450" cy="200" id="svg_36" rx="10" ry="10"/>
  <ellipse fill="#1f3696" stroke-width="1.5" cx="412" cy="200" id="svg_37" rx="10" ry="10"/>
  <ellipse fill="#1f3696" stroke-width="1.5" cx="368" cy="200" id="svg_38" rx="10" ry="10"/>
  <ellipse fill="#1f3696" stroke-width="1.5" cx="422" cy="120" id="svg_39" rx="10" ry="10"/>
  <ellipse fill="#1f3696" stroke-width="1.5" cx="392" cy="160" id="svg_40" rx="10" ry="10"/>
  <ellipse fill="#1f3696" stroke-width="1.5" cx="450" cy="240" id="svg_41" rx="10" ry="10"/>
  <ellipse fill="#1f3696" stroke-width="1.5" cx="450" cy="280" id="svg_42" rx="10" ry="10"/>
  <ellipse fill="#1f3696" stroke-width="1.5" cx="410" cy="200" id="svg_43" rx="10" ry="10"/>
  <ellipse fill="#1f3696" stroke-width="1.5" cx="490" cy="200" id="svg_44" rx="10" ry="10"/>
  <ellipse fill="#1f3696" stroke-width="1.5" cx="450" cy="320" id="svg_45" rx="10" ry="10"/>
  <line fill="none" stroke="#1f3696" stroke-width="8" x1="170" y1="80" x2="140" y2="120" id="svg_47" stroke-linejoin="null" stroke-linecap="null"/>
  <line fill="none" stroke="#1f3696" stroke-width="8" x1="140" y1="120" x2="110" y2="160" id="svg_48" stroke-linejoin="null" stroke-linecap="null"/>
  <line fill="none" stroke="#1f3696" stroke-width="8" x1="110" y1="160" x2="80" y2="200" id="svg_49" stroke-linejoin="null" stroke-linecap="null"/>
  <line fill="none" stroke="#1f3696" stroke-width="8" x1="170" y1="80" x2="170" y2="120" id="svg_52" stroke-linejoin="null" stroke-linecap="null"/>
  <line fill="none" stroke="#1f3696" stroke-width="8" x1="170" y1="120" x2="170" y2="160" id="svg_53" stroke-linejoin="null" stroke-linecap="null"/>
  <line fill="none" stroke="#1f3696" stroke-width="8" x1="170" y1="160" x2="170" y2="200" id="svg_54" stroke-linejoin="null" stroke-linecap="null"/>
  <line fill="none" stroke="#1f3696" stroke-width="5" x1="170" y1="200" x2="140" y2="200" id="svg_55" stroke-linejoin="null" stroke-linecap="null"/>
  <line fill="none" stroke="#1f3696" stroke-width="8" x1="170" y1="200" x2="130" y2="200" id="svg_56" stroke-linejoin="null" stroke-linecap="null"/>
  <line fill="none" stroke="#1f3696" stroke-width="8" x1="130" y1="200" x2="90" y2="200" id="svg_57" stroke-linejoin="null" stroke-linecap="null"/>
  <line fill="none" stroke="#1f3696" stroke-width="8" x1="170" y1="200" x2="170" y2="240" id="svg_58" stroke-linejoin="null" stroke-linecap="null"/>
  <line fill="none" stroke="#1f3696" stroke-width="8" x1="170" y1="240" x2="170" y2="280" id="svg_59" stroke-linejoin="null" stroke-linecap="null"/>
  <line fill="none" stroke="#1f3696" stroke-width="8" x1="170" y1="280" x2="170" y2="320" id="svg_60" stroke-linejoin="null" stroke-linecap="null"/>
  <line fill="none" stroke="#1f3696" stroke-width="8" x1="210" y1="200" x2="170" y2="200" id="svg_61" stroke-linejoin="null" stroke-linecap="null"/>
  <line fill="none" stroke-width="8" x1="250" y1="120" x2="250" y2="160" id="svg_64" stroke-linejoin="null" stroke-linecap="null" stroke="#1f3696"/>
  <line fill="none" stroke="#1f3696" stroke-width="8" x1="250" y1="160" x2="250" y2="200" id="svg_65" stroke-linejoin="null" stroke-linecap="null"/>
  <line fill="none" stroke="#1f3696" stroke-width="8" x1="250" y1="200" x2="250" y2="240" id="svg_66" stroke-linejoin="null" stroke-linecap="null"/>
  <line fill="none" stroke="#1f3696" stroke-width="8" x1="250" y1="240" x2="250" y2="280" id="svg_67" stroke-linejoin="null" stroke-linecap="null"/>
  <line fill="none" stroke="#1f3696" stroke-width="8" x1="330" y1="120" x2="330" y2="160" id="svg_68" stroke-linejoin="null" stroke-linecap="null"/>
  <line fill="none" stroke="#1f3696" stroke-width="8" x1="330" y1="160" x2="330" y2="200" id="svg_69" stroke-linejoin="null" stroke-linecap="null"/>
  <line fill="none" stroke="#1f3696" stroke-width="8" x1="330" y1="200" x2="330" y2="240" id="svg_70" stroke-linejoin="null" stroke-linecap="null"/>
  <line fill="none" stroke="#1f3696" stroke-width="8" x1="330" y1="240" x2="330" y2="280" id="svg_71" stroke-linejoin="null" stroke-linecap="null"/>
  <line fill="none" stroke="#1f3696" stroke-width="8" x1="450" y1="80" x2="450" y2="120" id="svg_72" stroke-linejoin="null" stroke-linecap="null"/>
  <line fill="none" stroke="#1f3696" stroke-width="8" x1="450" y1="120" x2="450" y2="160" id="svg_73" stroke-linejoin="null" stroke-linecap="null"/>
  <line fill="none" stroke="#1f3696" stroke-width="8" x1="450" y1="160" x2="450" y2="200" id="svg_74" stroke-linejoin="null" stroke-linecap="null"/>
  <line fill="none" stroke="#1f3696" stroke-width="8" x1="450" y1="200" x2="410" y2="200" id="svg_75" stroke-linejoin="null" stroke-linecap="null"/>
  <line fill="none" stroke="#1f3696" stroke-width="8" x1="410" y1="200" x2="370" y2="200" id="svg_76" stroke-linejoin="null" stroke-linecap="null"/>
  <line fill="none" stroke="#1f3696" stroke-width="8" x1="450" y1="200" x2="450" y2="240" id="svg_77" stroke-linejoin="null" stroke-linecap="null"/>
  <line fill="none" stroke="#1f3696" stroke-width="8" x1="450" y1="240" x2="450" y2="280" id="svg_78" stroke-linejoin="null" stroke-linecap="null"/>
  <line fill="none" stroke="#1f3696" stroke-width="8" x1="450" y1="280" x2="450" y2="320" id="svg_79" stroke-linejoin="null" stroke-linecap="null"/>
  <line fill="none" stroke="#1f3696" stroke-width="8" x1="490" y1="200" x2="450" y2="200" id="svg_80" stroke-linejoin="null" stroke-linecap="null"/>
  <line fill="none" stroke="#1f3696" stroke-width="8" x1="450" y1="80" x2="420" y2="120" id="svg_81" stroke-linejoin="null" stroke-linecap="null"/>
  <line fill="none" stroke="#1f3696" stroke-width="8" x1="420" y1="120" x2="390" y2="160" id="svg_82" stroke-linejoin="null" stroke-linecap="null"/>
  <line fill="none" stroke="#1f3696" stroke-width="8" x1="390" y1="160" x2="360" y2="200" id="svg_83" stroke-linejoin="null" stroke-linecap="null"/>
  <line fill="none" stroke="#1f3696" stroke-width="8" x1="290" y1="80" x2="250" y2="120" id="svg_85" stroke-linejoin="null" stroke-linecap="null"/>
  <line fill="none" stroke="#1f3696" stroke-width="8" x1="330" y1="280" x2="290" y2="320" id="svg_86" stroke-linejoin="null" stroke-linecap="null"/>
 </g>
</svg>