<svg width="16" height="16" xmlns="http://www.w3.org/2000/svg">

 <g>
  <title>background</title>
  <rect fill="none" id="canvas_background" height="402" width="582" y="-1" x="-1"/>
 </g>
 <g>
  <title>Layer 1</title>
  <g transform="rotate(45 8,8) " id="Delete">
   <g id="svg_1">
    <path id="svg_2" fill-rule="evenodd" clip-rule="evenodd" d="m10.121,4.464l-2.121,2.122l-2.121,-2.122l-1.415,1.415l2.122,2.121l-2.121,2.121l1.414,1.414l2.121,-2.121l2.121,2.121l1.414,-1.414l-2.121,-2.121l2.121,-2.121l-1.414,-1.415zm3.536,-2.121c-3.124,-3.124 -8.19,-3.124 -11.314,0c-3.124,3.124 -3.124,8.19 0,11.314c3.124,3.124 8.19,3.124 11.314,0c3.124,-3.124 3.124,-8.19 0,-11.314zm-1.414,9.9c-2.343,2.343 -6.142,2.343 -8.485,0s-2.343,-6.142 0,-8.485c2.343,-2.343 6.142,-2.343 8.485,0c2.343,2.343 2.343,6.141 0,8.485z"/>
   </g>
  </g>
  <g id="svg_3"/>
  <g id="svg_4"/>
  <g id="svg_5"/>
  <g id="svg_6"/>
  <g id="svg_7"/>
  <g id="svg_8"/>
  <g id="svg_9"/>
  <g id="svg_10"/>
  <g id="svg_11"/>
  <g id="svg_12"/>
  <g id="svg_13"/>
  <g id="svg_14"/>
  <g id="svg_15"/>
  <g id="svg_16"/>
  <g id="svg_17"/>
 </g>
</svg>