<?xml version="1.0" encoding="utf-8"?>
<!-- Generator: Adobe Illustrator 17.0.0, SVG Export Plug-In . SVG Version: 6.00 Build 0)  -->
<!DOCTYPE svg PUBLIC "-//W3C//DTD SVG 1.1//EN" "http://www.w3.org/Graphics/SVG/1.1/DTD/svg11.dtd">
<svg version="1.1" id="Capa_1" xmlns="http://www.w3.org/2000/svg" xmlns:xlink="http://www.w3.org/1999/xlink" x="0px" y="0px"
	 width="200px" height="200px" viewBox="0 0 200 200" enable-background="new 0 0 200 200" xml:space="preserve">
<g>
	<path d="M196.835,142.831c-1.801-14.681-10.191-30.257-13.886-44.789c-6.079-23.912-12.769-47.667-20.278-71.17
		c-0.783-2.45-3.182-3.881-5.713-3.244c-16.238,4.09-33.411,5.015-41.302,14.697c-8.942-19.112-30.498-14.903-48.004-12.403
		c-2.045,0.292-3.28,2.572-3.364,4.418c-0.335,7.405-0.573,14.846-0.766,22.298c-0.6-7.066-1.279-14.129-2.133-21.182
		c-0.241-1.99-1.27-4.235-3.524-4.629c-15.79-2.764-31.167-1.486-47.055-0.143c-1.945,0.164-4.262,1.316-4.601,3.503
		C2.524,53.92,3.463,77.566,4.619,101.469c1.055,21.797-3.713,44.848,3.147,65.928c0.311,0.954,1.024,1.556,1.846,1.889
		c0.203,2.188,1.68,4.243,4.547,4.291c15.241,0.254,30.576-0.06,45.778-1.174c2.669-0.196,4.597-2.007,4.728-4.729
		c0.261-5.393,0.486-10.788,0.679-16.183c0.304,4.658,0.621,9.314,0.99,13.95c0.181,2.268,1.817,3.42,3.495,3.498
		c-0.376,2.981,2.031,6.476,5.889,5.564c13.059-3.088,36.148,6.133,46.81-4.529c9.92-9.92,1.355-38.562-0.118-50.335
		c-0.813-6.495-1.18-13.058-1.419-19.632c0.531,2.45,1.096,4.894,1.54,7.361c3.676,20.443,7.014,40.23,17.429,58.477
		c0.6,1.052,1.66,1.445,2.705,1.383c-0.441,2.627,1.004,5.444,4.362,5.087C165.093,170.401,200.031,168.883,196.835,142.831z
		 M44.299,144.134c-0.693,4.708-4.97,8.026-9.686,7.056c-3.903-0.803-5.581-4.496-5.334-8.156c0.198-2.928,1.937-4.798,4.204-5.957
		c0.633,0.776,1.613,1.269,3.008,1.124C40.617,137.772,45.044,139.07,44.299,144.134z M14.504,112.931
		c-0.011-1.478-0.01-2.955-0.059-4.433c-0.397-11.804-1.17-23.588-1.503-35.396c-0.252-8.944-2.419-25.701,3.19-33.612
		c0.565,0.556,1.37,0.883,2.423,0.78c11.116-1.083,22.316,0.226,33.458,0.234c0.673,1.348,1.146,2.948,1.35,4.876
		c1.523,14.358,2.235,28.794,2.773,43.216c0.244,6.541,0.374,13.086,0.431,19.632C41.848,109.536,27.308,111.726,14.504,112.931z
		 M101.034,147.3c-1.277,3.717-5.738,5.627-9.356,4.902c-4.617-0.925-7.69-5.529-5.71-9.978c1.568-3.523,4.855-5.207,8.392-5.535
		c0.332,0.464,0.784,0.864,1.404,1.141C100.011,139.724,102.655,142.583,101.034,147.3z M74.321,107.234
		c-0.627-24.288-1.741-48.605-0.964-72.852c0.486-0.057,0.972-0.104,1.458-0.159c-1.87,1.648-1.833,5.267,1.125,5.821
		c4.55,0.852,9.265,1.04,13.864,1.526c4.997,0.527,10.366,1.6,15.402,1.23c0.462-0.034,0.94-0.133,1.404-0.284
		c2.675,6.283,2.748,14.625,3.277,21.461c1.243,16.046,1.025,32.198,2.222,48.241C100.757,108.159,87.754,106.983,74.321,107.234z
		 M119.724,50.168c-0.042-0.399,0.014-0.758,0.022-1.137c4.597-3.113,9.126-5.914,14.309-8.283
		c5.429-2.482,11.245-3.882,16.644-6.296c0.333-0.149,0.559-0.372,0.814-0.576c1.212-0.17,2.38-0.334,3.427-0.489
		c6.958,22.446,13.181,45.075,19.104,67.806c-13.664,5.274-26.822,11.76-40.74,16.343c-2.04-11.149-3.778-22.339-5.742-33.226
		C125.48,72.765,120.963,61.93,119.724,50.168z M166.794,152.453c-3.636,4.332-11.143,3.185-13.977-1.434
		c-3.055-4.98-0.052-10.692,4.352-13.722c0.347-0.004,0.686,0.026,1.054-0.077c4.009-1.13,8.287-1.834,10.179,2.823
		C169.988,143.946,169.558,149.161,166.794,152.453z"/>
</g>
</svg>
